<mxfile host="app.diagrams.net" modified="2023-05-23T00:08:42.224Z" agent="Mozilla/5.0 (Windows NT 10.0; Win64; x64) AppleWebKit/537.36 (KHTML, like Gecko) Chrome/113.0.0.0 Safari/537.36" etag="Nos0ba_kvVWdHFfDFX8t" version="21.3.2" type="device">
  <diagram name="Página-1" id="ih57vAn0Aj6K7xy8B9OL">
    <mxGraphModel dx="1114" dy="616" grid="1" gridSize="10" guides="1" tooltips="1" connect="1" arrows="1" fold="1" page="1" pageScale="1" pageWidth="827" pageHeight="1169" math="0" shadow="0">
      <root>
        <mxCell id="0" />
        <mxCell id="1" parent="0" />
        <mxCell id="VIls2VZyN03jhkpeJjoV-7" style="edgeStyle=orthogonalEdgeStyle;rounded=0;orthogonalLoop=1;jettySize=auto;html=1;entryX=0;entryY=0.5;entryDx=0;entryDy=0;" edge="1" parent="1" source="VIls2VZyN03jhkpeJjoV-1" target="VIls2VZyN03jhkpeJjoV-6">
          <mxGeometry relative="1" as="geometry" />
        </mxCell>
        <mxCell id="VIls2VZyN03jhkpeJjoV-20" style="edgeStyle=orthogonalEdgeStyle;rounded=0;orthogonalLoop=1;jettySize=auto;html=1;entryX=0;entryY=0.5;entryDx=0;entryDy=0;" edge="1" parent="1" source="VIls2VZyN03jhkpeJjoV-1" target="VIls2VZyN03jhkpeJjoV-19">
          <mxGeometry relative="1" as="geometry" />
        </mxCell>
        <mxCell id="VIls2VZyN03jhkpeJjoV-24" style="edgeStyle=orthogonalEdgeStyle;rounded=0;orthogonalLoop=1;jettySize=auto;html=1;entryX=0;entryY=0.5;entryDx=0;entryDy=0;" edge="1" parent="1" source="VIls2VZyN03jhkpeJjoV-1" target="VIls2VZyN03jhkpeJjoV-23">
          <mxGeometry relative="1" as="geometry" />
        </mxCell>
        <mxCell id="VIls2VZyN03jhkpeJjoV-26" style="edgeStyle=orthogonalEdgeStyle;rounded=0;orthogonalLoop=1;jettySize=auto;html=1;entryX=0;entryY=0.5;entryDx=0;entryDy=0;" edge="1" parent="1" source="VIls2VZyN03jhkpeJjoV-1" target="VIls2VZyN03jhkpeJjoV-25">
          <mxGeometry relative="1" as="geometry" />
        </mxCell>
        <mxCell id="VIls2VZyN03jhkpeJjoV-29" style="edgeStyle=orthogonalEdgeStyle;rounded=0;orthogonalLoop=1;jettySize=auto;html=1;entryX=0;entryY=0.5;entryDx=0;entryDy=0;" edge="1" parent="1" source="VIls2VZyN03jhkpeJjoV-1" target="VIls2VZyN03jhkpeJjoV-28">
          <mxGeometry relative="1" as="geometry" />
        </mxCell>
        <mxCell id="VIls2VZyN03jhkpeJjoV-1" value="&lt;font style=&quot;vertical-align: inherit;&quot;&gt;&lt;font style=&quot;vertical-align: inherit;&quot;&gt;&lt;font style=&quot;vertical-align: inherit;&quot;&gt;&lt;font style=&quot;vertical-align: inherit;&quot;&gt;Aluno&lt;/font&gt;&lt;/font&gt;&lt;br&gt;&lt;/font&gt;&lt;/font&gt;" style="shape=umlActor;verticalLabelPosition=bottom;verticalAlign=top;html=1;outlineConnect=0;" vertex="1" parent="1">
          <mxGeometry x="60" y="200" width="20" height="60" as="geometry" />
        </mxCell>
        <mxCell id="VIls2VZyN03jhkpeJjoV-6" value="&lt;font style=&quot;vertical-align: inherit;&quot;&gt;&lt;font style=&quot;vertical-align: inherit;&quot;&gt;&lt;font style=&quot;vertical-align: inherit;&quot;&gt;&lt;font style=&quot;vertical-align: inherit;&quot;&gt;&lt;font style=&quot;vertical-align: inherit;&quot;&gt;&lt;font style=&quot;vertical-align: inherit;&quot;&gt;&lt;font style=&quot;vertical-align: inherit;&quot;&gt;&lt;font style=&quot;vertical-align: inherit;&quot;&gt;Visualização do conteúdo&lt;/font&gt;&lt;/font&gt;&lt;/font&gt;&lt;/font&gt;&lt;/font&gt;&lt;/font&gt;&lt;br&gt;&lt;/font&gt;&lt;/font&gt;" style="ellipse;whiteSpace=wrap;html=1;" vertex="1" parent="1">
          <mxGeometry x="280" y="350" width="120" height="80" as="geometry" />
        </mxCell>
        <mxCell id="VIls2VZyN03jhkpeJjoV-16" style="edgeStyle=orthogonalEdgeStyle;rounded=0;orthogonalLoop=1;jettySize=auto;html=1;entryX=1;entryY=0.5;entryDx=0;entryDy=0;" edge="1" parent="1" source="VIls2VZyN03jhkpeJjoV-15" target="VIls2VZyN03jhkpeJjoV-6">
          <mxGeometry relative="1" as="geometry">
            <mxPoint x="410" y="240" as="targetPoint" />
          </mxGeometry>
        </mxCell>
        <mxCell id="VIls2VZyN03jhkpeJjoV-21" style="edgeStyle=orthogonalEdgeStyle;rounded=0;orthogonalLoop=1;jettySize=auto;html=1;entryX=1;entryY=0.5;entryDx=0;entryDy=0;" edge="1" parent="1" source="VIls2VZyN03jhkpeJjoV-15" target="VIls2VZyN03jhkpeJjoV-19">
          <mxGeometry relative="1" as="geometry" />
        </mxCell>
        <mxCell id="VIls2VZyN03jhkpeJjoV-22" style="edgeStyle=orthogonalEdgeStyle;rounded=0;orthogonalLoop=1;jettySize=auto;html=1;entryX=1;entryY=0.5;entryDx=0;entryDy=0;" edge="1" parent="1" source="VIls2VZyN03jhkpeJjoV-15" target="VIls2VZyN03jhkpeJjoV-17">
          <mxGeometry relative="1" as="geometry" />
        </mxCell>
        <mxCell id="VIls2VZyN03jhkpeJjoV-36" style="edgeStyle=orthogonalEdgeStyle;rounded=0;orthogonalLoop=1;jettySize=auto;html=1;entryX=1;entryY=0.5;entryDx=0;entryDy=0;" edge="1" parent="1" source="VIls2VZyN03jhkpeJjoV-15" target="VIls2VZyN03jhkpeJjoV-35">
          <mxGeometry relative="1" as="geometry" />
        </mxCell>
        <mxCell id="VIls2VZyN03jhkpeJjoV-15" value="&lt;font style=&quot;vertical-align: inherit;&quot;&gt;&lt;font style=&quot;vertical-align: inherit;&quot;&gt;Secretaria&lt;br&gt;da&lt;br&gt;educação&lt;br&gt;&lt;/font&gt;&lt;/font&gt;" style="shape=umlActor;verticalLabelPosition=bottom;verticalAlign=top;html=1;outlineConnect=0;" vertex="1" parent="1">
          <mxGeometry x="620" y="200" width="30" height="60" as="geometry" />
        </mxCell>
        <mxCell id="VIls2VZyN03jhkpeJjoV-17" value="&lt;font style=&quot;vertical-align: inherit;&quot;&gt;&lt;font style=&quot;vertical-align: inherit;&quot;&gt;Postagem do conteúdo&lt;/font&gt;&lt;/font&gt;" style="ellipse;whiteSpace=wrap;html=1;" vertex="1" parent="1">
          <mxGeometry x="280" y="130" width="120" height="80" as="geometry" />
        </mxCell>
        <mxCell id="VIls2VZyN03jhkpeJjoV-19" value="&lt;font style=&quot;vertical-align: inherit;&quot;&gt;&lt;font style=&quot;vertical-align: inherit;&quot;&gt;Acesso à plataforma&lt;/font&gt;&lt;/font&gt;" style="ellipse;whiteSpace=wrap;html=1;" vertex="1" parent="1">
          <mxGeometry x="280" y="20" width="120" height="80" as="geometry" />
        </mxCell>
        <mxCell id="VIls2VZyN03jhkpeJjoV-23" value="&lt;font style=&quot;vertical-align: inherit;&quot;&gt;&lt;font style=&quot;vertical-align: inherit;&quot;&gt;Download do conteúdo&lt;/font&gt;&lt;/font&gt;" style="ellipse;whiteSpace=wrap;html=1;" vertex="1" parent="1">
          <mxGeometry x="280" y="460" width="120" height="80" as="geometry" />
        </mxCell>
        <mxCell id="VIls2VZyN03jhkpeJjoV-25" value="&lt;font style=&quot;vertical-align: inherit;&quot;&gt;&lt;font style=&quot;vertical-align: inherit;&quot;&gt;Pesquisa do conteúdo&lt;/font&gt;&lt;/font&gt;" style="ellipse;whiteSpace=wrap;html=1;" vertex="1" parent="1">
          <mxGeometry x="280" y="240" width="120" height="80" as="geometry" />
        </mxCell>
        <mxCell id="VIls2VZyN03jhkpeJjoV-28" value="&lt;font style=&quot;vertical-align: inherit;&quot;&gt;&lt;font style=&quot;vertical-align: inherit;&quot;&gt;Postagem de dúvidas&lt;/font&gt;&lt;/font&gt;" style="ellipse;whiteSpace=wrap;html=1;" vertex="1" parent="1">
          <mxGeometry x="280" y="580" width="120" height="80" as="geometry" />
        </mxCell>
        <mxCell id="VIls2VZyN03jhkpeJjoV-33" style="edgeStyle=orthogonalEdgeStyle;rounded=0;orthogonalLoop=1;jettySize=auto;html=1;entryX=0;entryY=0.5;entryDx=0;entryDy=0;" edge="1" parent="1" source="VIls2VZyN03jhkpeJjoV-31" target="VIls2VZyN03jhkpeJjoV-19">
          <mxGeometry relative="1" as="geometry">
            <Array as="points">
              <mxPoint x="30" y="90" />
              <mxPoint x="280" y="90" />
            </Array>
          </mxGeometry>
        </mxCell>
        <mxCell id="VIls2VZyN03jhkpeJjoV-34" style="edgeStyle=orthogonalEdgeStyle;rounded=0;orthogonalLoop=1;jettySize=auto;html=1;entryX=0;entryY=0.5;entryDx=0;entryDy=0;" edge="1" parent="1" source="VIls2VZyN03jhkpeJjoV-31" target="VIls2VZyN03jhkpeJjoV-17">
          <mxGeometry relative="1" as="geometry">
            <Array as="points">
              <mxPoint x="30" y="170" />
            </Array>
          </mxGeometry>
        </mxCell>
        <mxCell id="VIls2VZyN03jhkpeJjoV-37" style="edgeStyle=orthogonalEdgeStyle;rounded=0;orthogonalLoop=1;jettySize=auto;html=1;entryX=0;entryY=0.5;entryDx=0;entryDy=0;" edge="1" parent="1" source="VIls2VZyN03jhkpeJjoV-31" target="VIls2VZyN03jhkpeJjoV-35">
          <mxGeometry relative="1" as="geometry">
            <Array as="points">
              <mxPoint x="25" y="740" />
            </Array>
          </mxGeometry>
        </mxCell>
        <mxCell id="VIls2VZyN03jhkpeJjoV-39" style="edgeStyle=orthogonalEdgeStyle;rounded=0;orthogonalLoop=1;jettySize=auto;html=1;" edge="1" parent="1" source="VIls2VZyN03jhkpeJjoV-31">
          <mxGeometry relative="1" as="geometry">
            <mxPoint x="180" y="280" as="targetPoint" />
            <Array as="points">
              <mxPoint x="30" y="280" />
            </Array>
          </mxGeometry>
        </mxCell>
        <mxCell id="VIls2VZyN03jhkpeJjoV-40" style="edgeStyle=orthogonalEdgeStyle;rounded=0;orthogonalLoop=1;jettySize=auto;html=1;" edge="1" parent="1" source="VIls2VZyN03jhkpeJjoV-31">
          <mxGeometry relative="1" as="geometry">
            <mxPoint x="180" y="390" as="targetPoint" />
            <Array as="points">
              <mxPoint x="115" y="390" />
              <mxPoint x="115" y="391" />
            </Array>
          </mxGeometry>
        </mxCell>
        <mxCell id="VIls2VZyN03jhkpeJjoV-41" style="edgeStyle=orthogonalEdgeStyle;rounded=0;orthogonalLoop=1;jettySize=auto;html=1;" edge="1" parent="1" source="VIls2VZyN03jhkpeJjoV-31">
          <mxGeometry relative="1" as="geometry">
            <mxPoint x="180" y="500" as="targetPoint" />
            <Array as="points">
              <mxPoint x="25" y="500" />
            </Array>
          </mxGeometry>
        </mxCell>
        <mxCell id="VIls2VZyN03jhkpeJjoV-42" style="edgeStyle=orthogonalEdgeStyle;rounded=0;orthogonalLoop=1;jettySize=auto;html=1;" edge="1" parent="1" source="VIls2VZyN03jhkpeJjoV-31">
          <mxGeometry relative="1" as="geometry">
            <mxPoint x="180" y="620" as="targetPoint" />
            <Array as="points">
              <mxPoint x="25" y="620" />
            </Array>
          </mxGeometry>
        </mxCell>
        <mxCell id="VIls2VZyN03jhkpeJjoV-31" value="&lt;font style=&quot;vertical-align: inherit;&quot;&gt;&lt;font style=&quot;vertical-align: inherit;&quot;&gt;Profº&lt;/font&gt;&lt;/font&gt;" style="shape=umlActor;verticalLabelPosition=bottom;verticalAlign=top;html=1;outlineConnect=0;" vertex="1" parent="1">
          <mxGeometry x="10" y="370" width="30" height="60" as="geometry" />
        </mxCell>
        <mxCell id="VIls2VZyN03jhkpeJjoV-35" value="&lt;font style=&quot;vertical-align: inherit;&quot;&gt;&lt;font style=&quot;vertical-align: inherit;&quot;&gt;&lt;font style=&quot;vertical-align: inherit;&quot;&gt;&lt;font style=&quot;vertical-align: inherit;&quot;&gt;Moderação de comentários&lt;/font&gt;&lt;/font&gt;&lt;/font&gt;&lt;/font&gt;" style="ellipse;whiteSpace=wrap;html=1;" vertex="1" parent="1">
          <mxGeometry x="280" y="700" width="120" height="80" as="geometry" />
        </mxCell>
      </root>
    </mxGraphModel>
  </diagram>
</mxfile>
